<?xml version="1.0" encoding="utf-8"?>
<svg viewBox="-1646.792 6944.487 1106.58 413.718" xmlns="http://www.w3.org/2000/svg">
  <g id="newlogo" transform="matrix(0.812016, 0, 0, 0.904061, -266.711731, 682.791809)" style="">
    <g transform="matrix(1, 0, 0, 1, 52.23534, -63.916557)">
      <path style="stroke-linecap: round; stroke-linejoin: round; stroke-width: 1.98126px; fill: rgb(69, 65, 65); stroke: rgb(255, 255, 255);" d="M -1372.044 7037.251 C -1372.044 7037.251 -1379.856 7075.337 -1382.576 7096.438 C -1382.576 7096.438 -1388.129 7105.366 -1400.984 7119.936 C -1413.839 7134.506 -1383.794 7117.192 -1383.384 7116.468 C -1383.384 7116.468 -1367.088 7108.343 -1357.561 7068.62 C -1348.034 7028.897 -1357.297 7096.72 -1354.325 7107.695 C -1351.353 7118.67 -1364.577 7146.232 -1363.865 7146.232 C -1363.153 7146.232 -1368.624 7161.869 -1348.942 7130.359 C -1329.26 7098.849 -1335.466 7075.366 -1335.466 7075.366 C -1335.466 7075.366 -1333.82 7097.646 -1326.856 7112.52 C -1319.892 7127.394 -1329.51 7145.054 -1326.165 7143.967 C -1322.82 7142.88 -1308.608 7129.897 -1312.305 7121.011 C -1316.002 7112.125 -1321.218 7084.685 -1319.445 7082.781 C -1317.672 7080.877 -1293.937 7117.9 -1295.389 7136.093 C -1296.841 7154.286 -1286.817 7127.373 -1285.407 7120.251 C -1283.997 7113.129 -1305.923 7063.788 -1302.256 7067.679 C -1298.589 7071.57 -1282.333 7093.415 -1272.566 7108.466 C -1262.799 7123.517 -1261.479 7140.987 -1259.415 7137.831 C -1257.351 7134.675 -1257.707 7110.369 -1258.786 7106.894 C -1259.865 7103.419 -1243.02 7126.29 -1242.992 7125.87 C -1242.964 7125.45 -1242.824 7102.199 -1252.152 7092.488 C -1261.48 7082.777 -1277.444 7070.401 -1271.912 7070.606 C -1266.38 7070.811 -1243.504 7093.959 -1243.462 7088.984 C -1243.42 7084.009 -1252.674 7072.809 -1255.56 7069.167 C -1258.446 7065.525 -1232.981 7078.651 -1214.067 7098.116 C -1195.153 7117.581 -1222.596 7074.239 -1224.57 7074.811 C -1226.544 7075.383 -1252.067 7055.948 -1252.177 7054.611 C -1252.287 7053.274 -1250.446 7049.842 -1238.48 7055.047 C -1226.514 7060.252 -1199.883 7076.509 -1199.016 7074.257 C -1198.149 7072.005 -1203.276 7056.899 -1207.336 7053.213 C -1211.396 7049.527 -1228.518 7043.632 -1232.948 7039.859 C -1237.378 7036.086 -1217.374 7039.786 -1204.274 7045.128 C -1191.174 7050.47 -1209.497 7032.575 -1209.497 7032.575 C -1208.228 7030.045 -1195.846 7036.368 -1195.985 7031.55 C -1196.124 7026.732 -1199.45 7021.591 -1200.796 7021.502 C -1202.142 7021.413 -1192.165 7013.986 -1185.141 7013.139 C -1178.117 7012.292 -1197.03 7008.124 -1197.03 7008.124 C -1198.658 7007.968 -1199.771 7002.179 -1193.763 7000.665 C -1187.755 6999.151 -1200.339 6991.753 -1205.494 6991.44" id="crest" transform="matrix(-1, 0, 0, -1, -2586.666748, 14140.214844)"/>
    </g>
    <path style="stroke-linejoin: round; stroke-linecap: round; fill: rgb(39, 39, 39); stroke-width: 1.98126px; stroke: rgb(255, 255, 255);" d="M -1520.675 7283.458 C -1520.675 7283.458 -1526.824 7270.53 -1509.739 7240.418 C -1492.654 7210.306 -1387.998 7187.682 -1387.998 7187.682 C -1387.998 7187.682 -1322.146 7191.273 -1295.087 7177.558 C -1268.028 7163.843 -1231.813 7174.23 -1231.883 7174.248 C -1231.883 7174.248 -1218.906 7174.143 -1226.695 7165.546 C -1226.695 7165.546 -1233.225 7156.979 -1212.723 7162.095 C -1205.604 7163.96 -1197.576 7162.525 -1205.734 7154.647 C -1204.547 7155.052 -1186.645 7157.006 -1185.95 7146.842 C -1185.95 7146.842 -1176.104 7145.902 -1172.42 7147.654 C -1168.736 7149.406 -1161.832 7142.083 -1161.832 7142.083 C -1166.613 7141.435 -1227.795 7129.41 -1238.14 7128.251 C -1248.485 7127.092 -1288.357 7109.784 -1288.374 7109.784 C -1288.374 7109.784 -1298.953 7103.546 -1312.607 7102.978 C -1315.285 7100.851 -1321.807 7089.536 -1332.221 7091.362 C -1338.945 7092.622 -1368.446 7071.805 -1406.907 7060.541 C -1445.368 7049.277 -1462.382 7055.997 -1462.382 7055.997 C -1462.382 7055.997 -1468.048 7041.733 -1467.573 7040.023 C -1467.098 7038.313 -1489.008 7031.686 -1489.008 7041.5 C -1489.008 7041.5 -1497.434 7042.749 -1499.329 7041.748 C -1499.329 7041.748 -1517.08 7063.297 -1518.569 7067.859 C -1518.569 7067.859 -1547.944 7086.165 -1565.325 7099.192 C -1582.706 7112.219 -1611.724 7157.652 -1614.74 7197.565 C -1614.74 7197.565 -1621.899 7207.673 -1622.939 7216.636 L -1659.745 7268.643 C -1659.745 7268.643 -1659.644 7270.76 -1679.43 7308.645 C -1685.215 7319.722 -1687.017 7327.044 -1687.763 7332.078" id="bogy" transform="matrix(-1, 0, 0, -1, -2849.594971, 14368.325684)"/>
    <path style="stroke-width: 3px; stroke-linejoin: round; stroke-linecap: round; fill: rgb(39, 39, 39);" d="M -1327.399 7064.93 C -1327.876 7076.837 -1325.32 7086.104 -1322.38 7084.203 C -1317.858 7081.28 -1304.827 7059.772 -1290.593 7054.783 C -1290.593 7054.783 -1283.909 7053.523 -1280.928 7061.339 C -1277.947 7069.155 -1267.161 7065.905 -1267.161 7065.905 C -1267.161 7065.905 -1260.977 7061.356 -1256.545 7050.451 C -1256.545 7050.451 -1253.096 7047.263 -1245.16 7052.011 C -1237.224 7056.759 -1225.747 7052.872 -1222.254 7047.21 C -1218.761 7041.548 -1192.301 7046.66 -1192.301 7046.66 C -1192.301 7046.66 -1171.098 7039.341 -1163.38 7017.218" id="bogy" transform="matrix(-1, 0, 0, -1, -2490.83667, 14101.668945)"/>
    <g id="beak" transform="matrix(-1, 0, 0, 1, -2762.520264, -63.916557)">
      <path style="stroke-width: 2px; fill: rgb(69, 65, 65); stroke: rgb(255, 255, 255);" d="M -1572.271 7163.75 C -1572.271 7163.75 -1550.066 7173.354 -1545.834 7174.238 C -1541.602 7175.122 -1535.345 7188.892 -1535.345 7188.892 C -1535.345 7188.892 -1533.038 7215.843 -1535.455 7216.581 C -1535.455 7216.581 -1544.537 7218.278 -1554.444 7207.493 L -1558.239 7202.588 C -1558.239 7202.588 -1561.494 7198.191 -1558.941 7207.754 C -1556.388 7217.317 -1568.868 7199.239 -1568.868 7199.239 C -1568.868 7199.239 -1586.972 7186.046 -1572.271 7163.75 Z"/>
      <path style="fill: none; stroke-width: 1.5px; stroke: rgb(255, 255, 255);" d="M -1541.388 7178.266 C -1541.388 7178.266 -1538.249 7183.967 -1543.386 7187.596 C -1548.523 7191.225 -1559.489 7192.232 -1557.382 7196.352 C -1555.275 7200.472 -1559.772 7201.785 -1559.772 7201.785"/>
    </g>
    <path style="fill: rgb(241, 196, 15); fill-opacity: 0.8;" d="M -1596.726 7203.656 C -1582.711 7197.719 -1593.253 7190.868 -1525.332 7178.317 C -1488.97 7175.63 -1503.033 7178.611 -1488.612 7188.75 C -1474.191 7198.889 -1398.858 7206.589 -1398.858 7206.589 C -1362.487 7208.338 -1372.839 7230.386 -1325.64 7235.612 C -1278.441 7240.838 -1544.879 7282.287 -1581.047 7284.188 C -1617.215 7286.089 -1622.808 7214.705 -1596.726 7203.656 Z" id="wing" transform="matrix(-1, 0, 0, -1, -2932.965942, 14461.605469)"/>
    <g id="eye" transform="matrix(-1.367514, 0, 0, 1.324052, -3322.79126, -2386.359619)" style="">
      <path style="fill: rgb(223, 223, 223);" d="M -1521.265 7150.532 C -1521.265 7150.532 -1525.854 7148.792 -1531.114 7154.815 C -1536.374 7160.838 -1533.634 7164.002 -1533.634 7164.002 C -1533.634 7164.002 -1531.661 7168.285 -1519.368 7166.454 C -1507.075 7164.623 -1514.398 7153.298 -1515.828 7152.383 C -1517.258 7151.468 -1517.271 7151.093 -1521.265 7150.532 Z"/>
      <path style="stroke: rgb(0, 0, 0);" d="M -1525.72 7162.843 C -1525.72 7162.843 -1522.754 7164.666 -1519.542 7162.84 C -1516.33 7161.014 -1517.926 7156.592 -1517.926 7156.592 C -1517.926 7156.592 -1518.619 7154.006 -1521.799 7153.966 C -1524.979 7153.926 -1525.841 7154.965 -1526.406 7155.692 C -1526.971 7156.419 -1529.553 7160.173 -1525.72 7162.843 Z"/>
      <ellipse style="fill: rgb(216, 216, 216); stroke: rgb(0, 0, 0);" cx="-1521.564" cy="7156.939" rx="1.736" ry="2.479"/>
    </g>
    <g transform="matrix(-0.999567, 0.029425, 0.029425, 0.999567, -2980.931885, -37.706757)" id="foot">
      <path style="stroke-linejoin: round; stroke-linecap: round; stroke-width: 1.98127px; fill: rgb(69, 65, 65); stroke: rgb(255, 255, 255);" d="M -1381.336 7408.224 C -1363.612 7412.143 -1352.66 7410.177 -1352.63 7410.18 C -1345.36 7410.865 -1342.324 7424.147 -1348.622 7424.113 C -1354.92 7424.079 -1382.249 7419.414 -1444.533 7426.072 C -1506.817 7432.73 -1492.496 7417.422 -1490.169 7414.04 C -1490.169 7414.04 -1428.401 7415.627 -1421.179 7410.399 C -1418.92 7408.764 -1416.333 7408.519 -1414.774 7407.022"/>
      <path style="stroke-linejoin: round; stroke-linecap: round; fill: rgb(89, 82, 82); stroke: rgb(255, 255, 255);" d="M -1490.723 7424.161 C -1490.723 7424.161 -1492.548 7419.989 -1496.941 7429.09 C -1501.334 7438.191 -1500.258 7413.652 -1489.255 7413.203 C -1478.252 7412.754 -1490.752 7424.05 -1490.723 7424.161 Z"/>
      <path style="stroke-linejoin: round; stroke-linecap: round; fill: rgb(89, 82, 82); stroke: rgb(255, 255, 255);" d="M -1342.69 7416.743 C -1342.69 7416.743 -1344.683 7421.523 -1349.254 7412.422 C -1353.826 7403.321 -1352.706 7427.86 -1341.256 7428.309 C -1329.806 7428.758 -1342.72 7416.854 -1342.69 7416.743 Z" transform="matrix(-1, 0, 0, -1, -2688.305054, 14838.72168)"/>
      <path style="fill: rgb(39, 39, 39); transform-box: fill-box; transform-origin: 50% 50%; stroke: rgb(255, 255, 255);" d="M -1415.152 7406.654 C -1417.461 7406.923 -1392.739 7412.989 -1381.471 7407.435"/>
    </g>
    <path style="fill: rgb(241, 196, 15); fill-opacity: 0.8;" d="M -1284.884 7099.264 C -1284.884 7099.264 -1248.697 7103.35 -1254.244 7128.934 C -1259.791 7154.518 -1285.758 7117.737 -1285.758 7117.737 C -1285.758 7117.737 -1293.874 7108.85 -1284.884 7099.264 Z" id="cheek"/>
    <path style="fill: rgb(39, 39, 39);" d="M -1593.042 7197.793 C -1579.027 7191.856 -1589.569 7185.005 -1521.648 7172.454 C -1485.286 7169.767 -1499.349 7172.748 -1484.928 7182.887 C -1470.507 7193.026 -1395.174 7200.726 -1395.174 7200.726 C -1358.803 7202.475 -1369.109 7224.867 -1321.956 7229.749 C -1274.803 7234.631 -1541.387 7274.533 -1577.363 7278.325 C -1613.339 7282.117 -1619.124 7208.842 -1593.042 7197.793 Z" id="path-1" transform="matrix(-1, 0, 0, -1, -2925.552979, 14449.984863)"/>
  </g>
  <text style="fill: rgb(51, 65, 85); font-family: 'Apple LiGothic'; font-size: 230px; line-height: 6.16033px; stroke: rgb(255, 255, 255); stroke-linecap: round; stroke-linejoin: round; stroke-width: 2px; white-space: pre;" id="clockor2" x="-1248.6" y="7320.27">Clockor2</text>
</svg>